<?xml version="1.0" encoding="UTF-8" standalone="no"?>
<!-- Created with Inkscape (http://www.inkscape.org/) -->

<svg
   width="210mm"
   height="297mm"
   viewBox="0 0 210 297"
   version="1.1"
   id="svg5"
   xml:space="preserve"
   inkscape:version="1.2.1 (9c6d41e410, 2022-07-14)"
   sodipodi:docname="icon.svg"
   xmlns:inkscape="http://www.inkscape.org/namespaces/inkscape"
   xmlns:sodipodi="http://sodipodi.sourceforge.net/DTD/sodipodi-0.dtd"
   xmlns="http://www.w3.org/2000/svg"
   xmlns:svg="http://www.w3.org/2000/svg"><sodipodi:namedview
     id="namedview7"
     pagecolor="#ffffff"
     bordercolor="#666666"
     borderopacity="1.0"
     inkscape:showpageshadow="2"
     inkscape:pageopacity="0.0"
     inkscape:pagecheckerboard="0"
     inkscape:deskcolor="#d1d1d1"
     inkscape:document-units="mm"
     showgrid="false"
     inkscape:zoom="1.1893044"
     inkscape:cx="283.77932"
     inkscape:cy="535.18679"
     inkscape:window-width="1920"
     inkscape:window-height="1001"
     inkscape:window-x="-9"
     inkscape:window-y="-9"
     inkscape:window-maximized="1"
     inkscape:current-layer="layer1" /><defs
     id="defs2"><marker
       markerWidth="188.34538"
       markerHeight="23.543173"
       refX="110"
       refY="11"
       orient="auto"
       id="marker1796"
       viewBox="0 0 188.34538 23.543173"
       preserveAspectRatio="xMidYMid"><rect
         style="fill:#3ddc84;fill-opacity:1;stroke:none;stroke-width:3.77953"
         id="rect1794"
         width="188.34538"
         height="23.543173"
         x="0"
         y="0"
         ry="11.771586" /></marker></defs><g
     inkscape:label="Lager 1"
     inkscape:groupmode="layer"
     id="layer1"><rect
       style="fill:#ffffff;stroke:#000000;stroke-width:1"
       id="rect288"
       width="100.11104"
       height="100.11104"
       x="44.938732"
       y="92.102165"
       ry="6.2291312"
       inkscape:export-filename="icon.png"
       inkscape:export-xdpi="128.62"
       inkscape:export-ydpi="128.62" /><path
       style="fill:#3ddc84;fill-opacity:1;stroke:#000000;stroke-width:1;stroke-dasharray:none"
       d="m 92.431516,174.20205 c -2.944632,-0.97194 -4.907833,-3.65343 -4.907833,-6.70348 0,-3.73932 3.142153,-6.88148 6.881466,-6.88148 3.05892,0 5.860221,2.07201 6.698141,4.95433 0.42632,1.4665 0.26311,3.50148 -0.39334,4.90428 -0.67986,1.45282 -1.87436,2.64721 -3.330547,3.33025 -0.974054,0.45688 -1.329154,0.53191 -2.701927,0.57088 -0.981806,0.0279 -1.832567,-0.0383 -2.24596,-0.17478 z m -9.150202,-15.7389 c -0.506537,-0.20771 -3.231408,-3.24994 -3.435621,-3.83575 -0.352544,-1.0113 0.06609,-1.85158 1.756356,-3.52529 2.502014,-2.47752 5.212463,-4.06528 8.397362,-4.9191 1.400417,-0.37544 1.943092,-0.4305 4.345325,-0.44097 3.124139,-0.0136 4.552099,0.26315 7.169644,1.38961 2.53327,1.0902 5.58243,3.42491 6.21562,4.75927 0.29222,0.61581 0.37351,1.60821 0.18133,2.2137 -0.10824,0.34106 -2.92598,2.74719 -3.6984,3.15816 -0.88659,0.47171 -1.97808,0.15378 -3.04713,-0.88759 -2.207974,-2.15076 -5.638121,-3.14791 -8.6511,-2.51488 -2.022159,0.42485 -3.817879,1.41647 -5.391036,2.97699 -0.740754,0.73481 -1.587738,1.43667 -1.882181,1.5597 -0.591863,0.2473 -1.447973,0.27619 -1.960169,0.0662 z m 30.944306,-11.72596 c -0.2745,-0.12363 -1.25202,-0.96293 -2.17225,-1.86513 -5.33721,-5.23257 -12.093968,-7.72894 -19.472873,-7.19452 -5.756039,0.41689 -11.434195,2.9474 -15.493657,6.90487 -1.666682,1.62481 -2.184576,1.94686 -3.13267,1.94806 -0.928924,8e-4 -1.420332,-0.34612 -3.128878,-2.21136 -1.682349,-1.83663 -1.920631,-2.20283 -1.92885,-2.96437 -0.0097,-0.8991 0.380329,-1.5536 1.675435,-2.81149 8.430595,-8.18829 19.950492,-11.5578 31.093013,-9.09454 6.33954,1.40146 11.6012,4.25219 16.36832,8.86825 2.39378,2.31792 2.92707,3.38817 2.36206,4.74042 -0.22332,0.53446 -2.7915,2.84467 -4.00686,3.60437 -0.58181,0.36368 -1.45512,0.39413 -2.16279,0.0755 z m 12.62797,-11.33689 c -0.28328,-0.13976 -1.10629,-0.93277 -1.82892,-1.76223 -4.92096,-5.64849 -12.38768,-10.33561 -19.96733,-12.53419 -3.83208,-1.11155 -7.319781,-1.57951 -11.772163,-1.57951 -8.613463,0 -16.427785,2.37804 -23.551315,7.16706 -2.216474,1.49009 -3.799383,2.73369 -5.335232,4.19155 -1.274408,1.2097 -1.999132,1.61804 -2.871686,1.61804 -0.97025,0 -1.419748,-0.32 -3.317907,-2.36203 -1.997576,-2.14897 -2.128772,-2.35236 -2.128772,-3.29997 0,-1.09968 0.402268,-1.68747 2.349076,-3.43244 8.022621,-7.19086 17.315965,-11.55115 28.012952,-13.14324 3.078739,-0.45822 11.148517,-0.42309 14.226497,0.0619 11.70356,1.84424 21.36189,6.7311 29.54845,14.95078 3.0106,3.02278 3.60409,3.83484 3.68104,5.0367 0.0824,1.28782 -0.1586,1.61566 -2.68431,3.65076 -2.07437,1.67144 -2.12177,1.69842 -2.97663,1.6947 -0.47779,-0.002 -1.10047,-0.11815 -1.38375,-0.25791 z"
       id="path4369" /></g></svg>
